# xmcd CD database file
#
# Track frame offsets:
#	150
#	19485
#	33507
#	48379
#	69833
#	90452
#	101247
#	121468
#	138356
#	163827
#	184648
#	198894
#	210515
#	225411
#	242858
#	260429
#	275476
#	292094
#	312040
#
# Disc length: 4429 seconds
#
# Revision: 2
# Processed by: cddbd v1.4b41PL1 Copyright (c) Steve Scherf et al.
# Submitted via: Feurio! 1.50.2ß - http://www.feurio.com
#
DISCID=11114b13
DTITLE=Various Artist - Romantic Collection More Gold [CD 2]
DYEAR=1900
DGENRE=
TTITLE0=Andrew Lloyd Weber - The Phantom Of The Opera
TTITLE1=Simon and Garfunkel - The Sound Of Silence
TTITLE2=Tony Carey - Room With A View
TTITLE3=Roxette - Crash! Boom! Bang!
TTITLE4=Scorpions - Believe In Love
TTITLE5=Francis Goya - Concierto D'Aranjuez
TTITLE6=Whitney Houston - I Will Always Love You
TTITLE7=Rod Steward - Sailing
TTITLE8=ABBA - Eagle
TTITLE9=Smokie - Stranger
TTITLE10=Chris Isaak - Graduation Day
TTITLE11=Cher - Gipsy Life
TTITLE12=The Alan Parson's Project - The Turn Of Friendly Card
TTITLE13=Barbara Streisand - Memory
TTITLE14=Art Of Noise - Peter Gunn
TTITLE15=Kansas - Dust In The Wind
TTITLE16=Patricia Kaas - Mademoiselle Chante Le Blues
TTITLE17=R.E.M. - Loosing My Religion
TTITLE18=Symphonic Rock Orchestra - The Phantom Of The Opera
EXTD=
EXTT0=
EXTT1=
EXTT2=
EXTT3=
EXTT4=
EXTT5=
EXTT6=
EXTT7=
EXTT8=
EXTT9=
EXTT10=
EXTT11=
EXTT12=
EXTT13=
EXTT14=
EXTT15=
EXTT16=
EXTT17=
EXTT18=
PLAYORDER=
